<svg xmlns="http://www.w3.org/2000/svg" xmlns:xlink="http://www.w3.org/1999/xlink" width="375" height="812" viewBox="0 0 375 812">
  <defs>
    <clipPath id="clip-path">
      <rect width="221.33" height="82.471" fill="none"/>
    </clipPath>
    <clipPath id="clip-path-2">
      <rect width="275" height="89" fill="none"/>
    </clipPath>
    <clipPath id="clip-path-3">
      <rect width="275" height="55" fill="none"/>
    </clipPath>
    <clipPath id="clip-path-4">
      <rect width="275" height="51.8" fill="none"/>
    </clipPath>
    <linearGradient id="linear-gradient" x1="0.5" x2="0.5" y2="1" gradientUnits="objectBoundingBox">
      <stop offset="0" stop-color="#3b789f"/>
      <stop offset="1" stop-color="#1e3c50"/>
    </linearGradient>
    <clipPath id="clip-path-5">
      <rect width="147" height="18" fill="none"/>
    </clipPath>
    <clipPath id="clip-path-6">
      <rect width="276" height="88" fill="none"/>
    </clipPath>
    <clipPath id="clip-path-8">
      <rect width="108.633" height="54" fill="none"/>
    </clipPath>
    <clipPath id="clip-path-9">
      <rect width="43" height="18" fill="none"/>
    </clipPath>
    <clipPath id="clip-path-10">
      <rect width="108.633" height="27.484" fill="none"/>
    </clipPath>
    <linearGradient id="linear-gradient-2" x1="0.5" y1="0.5" x2="0.5" y2="1" gradientUnits="objectBoundingBox">
      <stop offset="0" stop-color="#ccd4db"/>
      <stop offset="1" stop-color="#666a6e"/>
    </linearGradient>
    <linearGradient id="linear-gradient-3" x1="0.5" y1="0.5" x2="0.5" y2="1" gradientUnits="objectBoundingBox">
      <stop offset="0" stop-color="#143959"/>
      <stop offset="1" stop-color="#666a6e"/>
    </linearGradient>
    <clipPath id="clip-log_in">
      <rect width="375" height="812"/>
    </clipPath>
  </defs>
  <g id="log_in" clip-path="url(#clip-log_in)">
    <rect width="375" height="812" fill="#143959"/>
    <g id="Artwork_1" data-name="Artwork 1" transform="translate(36.016 87.035)" clip-path="url(#clip-path)">
      <g id="Group_4" data-name="Group 4">
        <path id="Path_1" data-name="Path 1" d="M139.6,0H101.649V9.528H138.98c12.808,0,16.713,4.061,17.65,10.309H118.518C104.3,19.837,97.9,25.3,97.9,37.643s6.4,17.963,20.774,17.963h47.484V23.9C166.314,7.81,157.567,0,139.6,0m17.338,46.234H119.767c-11.715,0-12.183-2.655-12.183-8.591s1.25-8.278,12.339-8.278h37.018Z" transform="translate(55.016)" fill="#fffdfd"/>
        <path id="Path_2" data-name="Path 2" d="M56.84,35.456H94.952c14.214,0,20.618-5.467,20.618-17.65S109.322,0,94.64,0H74.334C50.28,0,47,13.433,47,27.959s3.28,27.959,27.334,27.959h38.893V46.546H74.959c-13.12,0-16.869-3.436-18.119-10.778M74.959,9.216H93.7c11.09,0,12.183,2.655,12.183,8.591s-1.093,8.122-12.339,8.122H56.372c.312-11.715,3.436-16.713,18.587-16.713" transform="translate(26.412)" fill="#fffdfd"/>
        <path id="Path_3" data-name="Path 3" d="M54.925,0,9.628,43.266V0H.1V55.762h10L31.808,34.988,56.487,55.762H71.482L38.837,28.428,68.514,0Z" transform="translate(0.056)" fill="#fffdfd"/>
        <g id="Group_3" data-name="Group 3" transform="translate(0 69.351)">
          <g id="Group_1" data-name="Group 1">
            <path id="Path_4" data-name="Path 4" d="M2.343,44.9v4.686h0L5.311,44.9H7.966l-3.124,5,3.593,6.716H5.623L3.28,51.773l-.937,1.25v3.436H0V44.9Z" transform="translate(0 -44.119)" fill="#fffdfd"/>
            <path id="Path_5" data-name="Path 5" d="M6.75,56.115C5.656,55.178,5.5,53.3,5.5,50.96s.469-6.092,4.061-6.092a4.374,4.374,0,0,1,2.031.469l.469-.937.781.312-.469,1.093c1.093.937,1.25,2.812,1.25,5.154s-.469,6.092-4.061,6.092a4.373,4.373,0,0,1-2.031-.469l-.469.937-.781-.156Zm3.9-8.9a1.25,1.25,0,0,0-1.093-.625C8.155,46.587,8,47.836,8,50.96A19.056,19.056,0,0,0,8.155,53.3h0Zm-2.343,7.5a1.093,1.093,0,0,0,1.093.625c1.406,0,1.562-1.25,1.562-4.373a19.994,19.994,0,0,0,0-2.343h0Z" transform="translate(3.091 -44.4)" fill="#fffdfd"/>
            <path id="Path_6" data-name="Path 6" d="M11.5,44.9h3.9c1.874,0,3.28.781,3.28,2.968a2.5,2.5,0,0,1-1.718,2.5h0a2.5,2.5,0,0,1,2.187,2.655c0,1.874-.937,3.436-3.749,3.436H11.5Zm2.343,4.686h.625c1.25,0,1.874-.469,1.874-1.562s-.469-1.562-1.718-1.562h-.781Zm0,5.154h.937c1.093,0,1.874-.469,1.874-1.718A1.5,1.5,0,0,0,14.936,51.3H13.843Z" transform="translate(6.463 -44.119)" fill="#fffdfd"/>
            <path id="Path_7" data-name="Path 7" d="M23.96,44.9v1.874H19.743v2.812h3.9V51.46h-3.9v3.124h4.373v1.874H17.4V44.9Z" transform="translate(9.778 -44.119)" fill="#fffdfd"/>
            <path id="Path_8" data-name="Path 8" d="M25.155,44.9l2.812,7.966h0V44.9h2.187V56.615H27.5l-2.968-8.122h0v8.122H22.5V44.9Z" transform="translate(12.644 -44.119)" fill="#fffdfd"/>
            <path id="Path_9" data-name="Path 9" d="M28.5,44.9h2.343v4.53h2.812V44.9H36V56.615H33.654V51.3H30.843v5.154H28.5Z" transform="translate(16.016 -44.119)" fill="#fffdfd"/>
            <path id="Path_10" data-name="Path 10" d="M36.868,44.9h2.968l3.124,11.715h-2.5l-.625-2.5H36.712l-.469,2.5H33.9Zm.312,7.185h2.343L38.43,46.774h0Z" transform="translate(19.05 -44.119)" fill="#fffdfd"/>
            <path id="Path_11" data-name="Path 11" d="M42.2,44.9l1.718,8.591h0L45.635,44.9h2.5L45.479,56.615H42.355L39.7,44.9Z" transform="translate(22.31 -44.119)" fill="#fffdfd"/>
            <path id="Path_12" data-name="Path 12" d="M48.412,44.9l2.812,7.966h0V44.9H53.41V56.615H50.754l-2.968-8.278h0v8.122H45.6V44.9Z" transform="translate(25.625 -44.119)" fill="#fffdfd"/>
            <path id="Path_13" data-name="Path 13" d="M53.743,52.984V53.3c0,1.093.312,1.874,1.562,1.874a1.406,1.406,0,0,0,1.406-1.406c0-1.093-.469-1.406-2.031-2.031s-3.124-1.562-3.124-3.593a3.28,3.28,0,0,1,3.593-3.436c2.031,0,3.593.937,3.593,3.124v.312H56.554c0-1.093-.312-1.718-1.25-1.718A1.25,1.25,0,0,0,53.9,47.829c0,.781.156,1.093,1.25,1.562l1.874.781A2.968,2.968,0,0,1,59.21,53.3c0,2.5-1.562,3.592-4.061,3.592S51.4,55.639,51.4,53.453v-.469Z" transform="translate(28.885 -44.237)" fill="#fffdfd"/>
            <path id="Path_14" data-name="Path 14" d="M66.26,44.9v1.874H62.043v2.812h3.9V51.46h-3.9v3.124h4.373v1.874H59.7V44.9Z" transform="translate(33.549 -44.119)" fill="#fffdfd"/>
            <path id="Path_15" data-name="Path 15" d="M64.8,44.906h4.373A2.812,2.812,0,0,1,72.3,47.874a2.5,2.5,0,0,1-2.031,2.812h0c1.562.156,1.874,1.093,1.874,3.593s.156,1.874.469,2.031h-2.5a2.187,2.187,0,0,1-.312-1.25V53.029a1.243,1.243,0,0,0-1.406-1.406h-1.25v5H64.8Zm2.343,5.154h.937A1.5,1.5,0,0,0,69.8,48.343a1.406,1.406,0,0,0-1.562-1.718H67.143Z" transform="translate(36.415 -44.126)" fill="#fffdfd"/>
            <path id="Path_16" data-name="Path 16" d="M70.6,44.9h2.343v4.53h2.812V44.9H78.1V56.615H75.754V51.3H72.943v5.154H70.6Z" transform="translate(39.674 -44.119)" fill="#fffdfd"/>
            <path id="Path_17" data-name="Path 17" d="M78.5,44.9l1.718,8.591h0L81.935,44.9h2.5L81.779,56.615H78.655L76,44.9Z" transform="translate(42.709 -44.119)" fill="#fffdfd"/>
            <path id="Path_18" data-name="Path 18" d="M88.616,44.9v1.874H84.4v2.812h3.9V51.46H84.4v3.124h4.373v1.874H81.9V44.9Z" transform="translate(46.025 -44.119)" fill="#fffdfd"/>
            <path id="Path_19" data-name="Path 19" d="M87,44.906h4.374A2.812,2.812,0,0,1,94.5,47.874c0,1.562-.625,2.655-2.031,2.812h0c1.562.156,1.874,1.093,1.874,3.593s.156,1.874.469,2.031H92.467a2.343,2.343,0,0,1-.312-1.25V53.029a1.243,1.243,0,0,0-1.406-1.406H89.5v5H87Zm2.343,5.154h.937A1.5,1.5,0,0,0,92,48.343a1.406,1.406,0,0,0-1.718-1.562H89.187Z" transform="translate(48.891 -44.126)" fill="#fffdfd"/>
            <path id="Path_20" data-name="Path 20" d="M94.9,44.9l1.718,8.591h0L98.335,44.9h2.5L98.179,56.615H95.055L92.4,44.9Z" transform="translate(51.925 -44.119)" fill="#fffdfd"/>
            <path id="Path_21" data-name="Path 21" d="M100.5,52.984V53.3c0,1.093.312,1.874,1.562,1.874a1.406,1.406,0,0,0,1.406-1.406c0-1.093-.469-1.406-2.031-2.031s-3.124-1.562-3.124-3.593a3.28,3.28,0,0,1,3.592-3.436c2.031,0,3.593.937,3.593,3.124v.312h-2.343c0-1.093-.312-1.718-1.25-1.718a1.25,1.25,0,0,0-1.406,1.406c0,.781.156,1.093,1.25,1.562l1.874.781A2.968,2.968,0,0,1,105.81,53.3c0,2.5-1.562,3.592-4.061,3.592S98,55.639,98,53.453v-.469Z" transform="translate(55.072 -44.237)" fill="#fffdfd"/>
            <path id="Path_22" data-name="Path 22" d="M106.368,44.9h2.968l3.124,11.715h-2.5l-.469-2.5h-3.124l-.469,2.5h-2.5Zm.312,7.185h2.343l-1.093-5.311h0Z" transform="translate(58.107 -44.119)" fill="#fffdfd"/>
          </g>
          <path id="Path_23" data-name="Path 23" d="M112.1,44.9v4.686h0l2.968-4.686h2.5l-3.124,5,3.593,6.716h-2.655l-2.5-4.842-.937,1.25v3.436H109.6V44.9Z" transform="translate(61.591 -44.119)" fill="#fffdfd"/>
          <g id="Group_2" data-name="Group 2" transform="translate(179.313 0.781)">
            <path id="Path_24" data-name="Path 24" d="M117.924,44.9h2.968l3.124,11.715h-2.5l-.625-2.5h-3.124l-.469,2.5h-2.5Zm.312,7.185h2.343l-1.093-5.311h0Z" transform="translate(-114.8 -44.9)" fill="#fffdfd"/>
            <path id="Path_25" data-name="Path 25" d="M121.3,44.9h3.9c3.28,0,3.9,2.187,3.9,5.623s-.937,5.935-4.061,5.935H121.3Zm2.343,10h1.093c1.718,0,2.031-1.093,2.031-4.217s-.156-4.061-2.031-4.061H123.8Z" transform="translate(-111.147 -44.9)" fill="#fffdfd"/>
            <path id="Path_26" data-name="Path 26" d="M133.86,44.9v1.874h-4.217v2.812h3.9V51.46h-3.9v3.124h4.373v1.874H127.3V44.9Z" transform="translate(-107.776 -44.9)" fill="#fffdfd"/>
            <path id="Path_27" data-name="Path 27" d="M132.4,44.9h3.593l1.718,8.278h0l1.718-8.278h3.436V56.615h-2.187V47.243h0l-2.031,9.372h-1.874l-2.031-9.372h0v9.372h-2.187Z" transform="translate(-104.91 -44.9)" fill="#fffdfd"/>
            <path id="Path_28" data-name="Path 28" d="M140.2,56.458V44.9h2.343V56.615Z" transform="translate(-100.526 -44.9)" fill="#fffdfd"/>
          </g>
        </g>
      </g>
    </g>
    <g id="Component_11_1" data-name="Component 11 – 1" transform="translate(50 384)" clip-path="url(#clip-path-2)">
      <g id="Component_8_1" data-name="Component 8 – 1" transform="translate(0 34)" clip-path="url(#clip-path-3)">
        <rect id="Rectangle_2" data-name="Rectangle 2" width="275" height="55" fill="#ccd4db"/>
      </g>
      <text id="Lösenord" transform="translate(0 20)" fill="#fffdfd" font-size="20" font-family="HelveticaNeue-Bold, Helvetica Neue" font-weight="700"><tspan x="0" y="0">Lösenord</tspan></text>
    </g>
    <g id="Component_1_1" data-name="Component 1 – 1" transform="translate(50 499.019)" clip-path="url(#clip-path-4)">
      <rect id="Rectangle_4" data-name="Rectangle 4" width="275" height="51.8" rx="25.9" fill="url(#linear-gradient)"/>
      <text id="Logga_in" data-name="Logga in" transform="translate(96 31.762)" fill="#fffdfd" font-size="20" font-family="HelveticaNeue-Bold, Helvetica Neue" font-weight="700"><tspan x="0" y="0">Logga in</tspan></text>
    </g>
    <g id="Component_5_1" data-name="Component 5 – 1" transform="translate(114 755)" clip-path="url(#clip-path-5)">
      <text id="Glömt_ditt_lösenord_" data-name="Glömt ditt lösenord?" transform="translate(0 15)" fill="#fffdfd" font-size="15" font-family="HelveticaNeue-Bold, Helvetica Neue" font-weight="700" text-decoration="underline"><tspan x="0" y="0">Glömt ditt lösenord?</tspan></text>
    </g>
    <g id="Component_10_1" data-name="Component 10 – 1" transform="translate(50 282)" clip-path="url(#clip-path-6)">
      <text id="Användarnamn" transform="translate(1 20)" fill="#fffdfd" font-size="20" font-family="HelveticaNeue-Bold, Helvetica Neue" font-weight="700"><tspan x="0" y="0">Användarnamn</tspan></text>
      <g id="Component_9_1" data-name="Component 9 – 1" transform="translate(1 33)" clip-path="url(#clip-path-3)">
        <rect id="Rectangle_6" data-name="Rectangle 6" width="275" height="55" fill="#ccd4db"/>
      </g>
    </g>
    <g id="Group_25" data-name="Group 25" transform="translate(-565 250.597)">
      <g id="Group_17" data-name="Group 17" transform="translate(815.688 -152.562)">
        <path id="Path_101" data-name="Path 101" d="M815.688-152.562" transform="translate(-815.688 152.562)" fill="none" stroke="#707070" stroke-width="1"/>
        <path id="Path_102" data-name="Path 102" d="M861.028-152.186l36.776,15.26v13.258l-36.776,12.364v-12.364l22.744-7.927h0l-22.744-6.861v-13.73Z" transform="translate(-798.451 152.704)" fill="#3b789f"/>
        <path id="Path_104" data-name="Path 104" d="M861.028-152.186l36.776,15.26v13.258l-36.776,12.364v-12.364l22.744-7.927h0l-22.744-6.861v-13.73Z" transform="translate(-841.236 152.704)" fill="#3b789f"/>
      </g>
    </g>
    <g id="Component_40_2" data-name="Component 40 – 2" transform="translate(50.201 565)" clip-path="url(#clip-path-8)">
      <g id="Component_6_1" data-name="Component 6 – 1" transform="translate(9.799)" clip-path="url(#clip-path-9)">
        <text id="Språk" transform="translate(0 15)" fill="#fffdfd" font-size="15" font-family="HelveticaNeue-Bold, Helvetica Neue" font-weight="700"><tspan x="0" y="0">Språk</tspan></text>
      </g>
      <g id="Component_4_1" data-name="Component 4 – 1" transform="translate(0 26.516)" clip-path="url(#clip-path-10)">
        <g id="Group_11" data-name="Group 11">
          <g id="Group_10" data-name="Group 10">
            <rect id="Rectangle_5" data-name="Rectangle 5" width="108.633" height="27.484" rx="13.742" fill="url(#linear-gradient-2)"/>
          </g>
          <text id="Svenska" transform="translate(8.799 20)" fill="#143959" font-size="17" font-family="HelveticaNeue-Bold, Helvetica Neue" font-weight="700"><tspan x="0" y="0">Svenska</tspan></text>
        </g>
        <path id="Path_31" data-name="Path 31" d="M7.79,29.825,14.287,16H0Z" transform="translate(82.908 -7.556)" fill="url(#linear-gradient-3)"/>
      </g>
    </g>
  </g>
</svg>
